<svg width="25" height="26" viewBox="0 0 25 26" fill="none" xmlns="http://www.w3.org/2000/svg">
<path d="M4.83333 1L1 5.8V22.6C1 23.2365 1.26925 23.847 1.7485 24.2971C2.22776 24.7471 2.87778 25 3.55556 25H21.4444C22.1222 25 22.7722 24.7471 23.2515 24.2971C23.7308 23.847 24 23.2365 24 22.6V5.8L20.1667 1H4.83333Z" stroke="#030303" stroke-width="2" stroke-linecap="round" stroke-linejoin="round"/>
<path d="M1 5.80029H24" stroke="#030303" stroke-width="2" stroke-linecap="round" stroke-linejoin="round"/>
<path d="M17.6115 10.5999C17.6115 11.8738 17.073 13.0957 16.1145 13.9965C15.156 14.8974 13.856 15.4035 12.5004 15.4035C11.1449 15.4035 9.84482 14.8974 8.88631 13.9965C7.92779 13.0957 7.3893 11.8738 7.3893 10.5999" stroke="#030303" stroke-width="2" stroke-linecap="round" stroke-linejoin="round"/>
</svg>
