<svg width="30" height="26" viewBox="0 0 30 26" fill="none" xmlns="http://www.w3.org/2000/svg">
<path d="M20.0899 1H1V18.3328H20.0899V1Z" stroke="#40B25C" stroke-width="2" stroke-linecap="round" stroke-linejoin="round"/>
<path d="M20.0915 7.66663H25.1821L29.0001 11.6665V18.3329H20.0915V7.66663Z" stroke="#40B25C" stroke-width="2" stroke-linecap="round" stroke-linejoin="round"/>
<path d="M6.72794 24.9999C8.48513 24.9999 9.9096 23.5076 9.9096 21.6667C9.9096 19.8258 8.48513 18.3335 6.72794 18.3335C4.97076 18.3335 3.54629 19.8258 3.54629 21.6667C3.54629 23.5076 4.97076 24.9999 6.72794 24.9999Z" stroke="#40B25C" stroke-width="2" stroke-linecap="round" stroke-linejoin="round"/>
<path d="M23.2731 24.9999C25.0303 24.9999 26.4548 23.5076 26.4548 21.6667C26.4548 19.8258 25.0303 18.3335 23.2731 18.3335C21.516 18.3335 20.0915 19.8258 20.0915 21.6667C20.0915 23.5076 21.516 24.9999 23.2731 24.9999Z" stroke="#40B25C" stroke-width="2" stroke-linecap="round" stroke-linejoin="round"/>
</svg>
