<svg width="26" height="22" viewBox="0 0 26 22" fill="none" xmlns="http://www.w3.org/2000/svg">
<path d="M25.0002 1.01121C23.9556 1.76409 22.7989 2.33993 21.5748 2.71654C20.9178 1.9447 20.0446 1.39763 19.0734 1.14934C18.1021 0.901042 17.0797 0.963498 16.1443 1.32826C15.209 1.69302 14.4058 2.34249 13.8435 3.18882C13.2812 4.03515 12.9868 5.03751 13.0002 6.06034V7.17494C11.0831 7.22573 9.18345 6.79131 7.47044 5.91037C5.75742 5.02942 4.28423 3.72931 3.18206 2.12581C3.18206 2.12581 -1.18157 12.1572 8.63661 16.6156C6.38991 18.1738 3.71351 18.9551 1.00024 18.8448C10.8184 24.4178 22.8184 18.8448 22.8184 6.0269C22.8174 5.71643 22.7882 5.40673 22.7312 5.10178C23.8445 3.97993 24.6302 2.56352 25.0002 1.01121V1.01121Z" stroke="#101820" stroke-width="2" stroke-linecap="round" stroke-linejoin="round"/>
</svg>
