<svg width="26" height="27" viewBox="0 0 26 27" fill="none" xmlns="http://www.w3.org/2000/svg">
<path d="M24.9993 18.9699V22.5831C25.0006 22.9185 24.9318 23.2505 24.7971 23.5579C24.6625 23.8652 24.465 24.1411 24.2174 24.3679C23.9698 24.5946 23.6774 24.7673 23.359 24.8747C23.0407 24.9822 22.7033 25.0221 22.3686 24.9919C18.6554 24.5892 15.0885 23.3228 11.9547 21.2944C9.03906 19.4452 6.56712 16.978 4.7144 14.0679C2.67503 10.9259 1.40589 7.34854 1.00979 3.62572C0.979639 3.29267 1.0193 2.95699 1.12624 2.64007C1.23319 2.32314 1.40508 2.03192 1.63097 1.78493C1.85686 1.53795 2.1318 1.34061 2.43829 1.20549C2.74478 1.07038 3.0761 1.00043 3.41115 1.00012H7.0313C7.61692 0.994364 8.18466 1.20135 8.6287 1.58249C9.07273 1.96363 9.36276 2.49292 9.44472 3.0717C9.59752 4.22801 9.88089 5.36335 10.2894 6.45608C10.4518 6.88717 10.4869 7.35567 10.3907 7.80608C10.2944 8.25648 10.0708 8.66991 9.7464 8.99738L8.21387 10.527C9.9317 13.5423 12.4331 16.0389 15.4542 17.7534L16.9867 16.2238C17.3148 15.9 17.729 15.6768 18.1803 15.5808C18.6315 15.4847 19.1009 15.5198 19.5328 15.6818C20.6277 16.0896 21.7652 16.3724 22.9237 16.5249C23.5099 16.6075 24.0452 16.9022 24.4279 17.3529C24.8106 17.8037 25.0139 18.3792 24.9993 18.9699Z" stroke="#101820" stroke-width="2" stroke-linecap="round" stroke-linejoin="round"/>
</svg>
