<svg width="56" height="20" viewBox="0 0 56 20" fill="none" xmlns="http://www.w3.org/2000/svg">
<path d="M40.4761 7.49054H38.4685V14.316C38.4675 14.4447 38.3627 14.5487 38.2332 14.5497H36.687C36.5575 14.5487 36.4527 14.4447 36.4517 14.316V7.49054H34.4294C34.3682 7.49301 34.3086 7.4707 34.2642 7.42871C34.2198 7.38671 34.1945 7.32863 34.1941 7.26777V6.05898C34.1945 5.99812 34.2198 5.94004 34.2642 5.89804C34.3086 5.85605 34.3682 5.83374 34.4294 5.83621H40.4724C40.6028 5.83 40.7137 5.92955 40.7206 6.05898V7.26777C40.7137 7.39572 40.605 7.4947 40.4761 7.49054Z" fill="white"/>
<path d="M46.9144 14.5038C46.1229 14.6163 45.3238 14.6675 44.5244 14.6572C43.0003 14.6572 41.6545 14.2701 41.6545 12.1355V8.24077C41.6545 6.10621 43.0132 5.73189 44.5354 5.73189C45.3287 5.7211 46.1216 5.77177 46.907 5.88345C47.0725 5.90718 47.1423 5.96561 47.1423 6.11717V7.21275C47.1413 7.34142 47.0366 7.44548 46.907 7.44647H44.4251C43.8736 7.44647 43.6695 7.62907 43.6695 8.24442V9.31078H46.8206C46.9501 9.31178 47.0549 9.41584 47.0559 9.54451V10.6583C47.0549 10.787 46.9501 10.8911 46.8206 10.8921H43.6695V12.1355C43.6695 12.7454 43.8699 12.9335 44.4251 12.9335H46.9144C47.0439 12.9345 47.1487 13.0386 47.1497 13.1672V14.2628C47.1515 14.4089 47.0798 14.4801 46.9144 14.5038Z" fill="white"/>
<path d="M55.8235 14.5494H53.9465C53.8156 14.559 53.6927 14.4859 53.6394 14.3668L52.0106 11.8104L50.5398 14.3193C50.4571 14.4599 50.3743 14.553 50.2438 14.553H48.501C48.4553 14.5612 48.4084 14.5487 48.3729 14.5191C48.3374 14.4895 48.3169 14.4457 48.3171 14.3996C48.3195 14.371 48.3276 14.343 48.341 14.3175L50.902 10.0831L48.3171 6.05864C48.3038 6.03702 48.2956 6.01266 48.2932 5.98743C48.302 5.89497 48.3839 5.82665 48.4771 5.83404H50.378C50.5085 5.83404 50.6023 5.95091 50.674 6.05681L52.1852 8.43057L53.656 6.05681C53.7093 5.93676 53.8212 5.85254 53.952 5.83404H55.7003C55.7935 5.82665 55.8754 5.89497 55.8842 5.98743C55.8818 6.01266 55.8736 6.03702 55.8603 6.05864L53.2865 10.1068L55.9651 14.3065C55.9858 14.3422 55.9977 14.3822 56 14.4234C55.978 14.5037 55.9173 14.5494 55.8235 14.5494Z" fill="white"/>
<path d="M31.3664 5.85943C31.2782 5.85748 31.2011 5.91802 31.1826 6.00368L29.4673 12.3069C29.4434 12.4366 29.4085 12.4895 29.3018 12.4895C29.1952 12.4895 29.1603 12.442 29.1364 12.3069L27.4266 6.00368C27.4081 5.91802 27.331 5.85748 27.2428 5.85943H25.5551C25.4984 5.85805 25.4443 5.88269 25.4084 5.92622C25.3724 5.96975 25.3587 6.0273 25.3712 6.0822C25.3712 6.0822 27.4652 13.3075 27.4873 13.3861C27.7667 14.2479 28.4451 14.6642 29.3073 14.6642C30.1346 14.6937 30.8796 14.1705 31.1274 13.3861C31.1605 13.2875 33.2085 6.0822 33.2085 6.0822C33.2204 6.02757 33.2064 5.97056 33.1705 5.92748C33.1347 5.88441 33.081 5.86001 33.0247 5.86126L31.3664 5.85943Z" fill="white"/>
<path d="M21.8011 7.47998e-05H4.20342C3.56664 0.00585704 2.97881 0.340463 2.65189 0.88324C2.32497 1.42602 2.30612 2.09868 2.60213 2.65868L4.36337 5.98924H1.17181C0.764065 5.98187 0.382842 6.18937 0.169699 6.53469C-0.0434439 6.88001 -0.0566735 7.31157 0.134923 7.66913L5.79736 18.2962C6.00055 18.6779 6.39958 18.9166 6.83425 18.9166C7.26892 18.9166 7.66794 18.6779 7.87113 18.2962L9.40808 15.4167L11.3385 19.0431C11.6523 19.6318 12.2681 20 12.9388 20C13.6096 20 14.2253 19.6318 14.5392 19.0431L23.3638 2.56373C23.656 2.02131 23.6384 1.36605 23.3177 0.83981C22.9969 0.313569 22.4204 -0.00561433 21.8011 7.47998e-05ZM13.938 6.96248L10.0773 14.1531C9.94463 14.4015 9.68472 14.5568 9.40165 14.5568C9.11858 14.5568 8.85866 14.4015 8.72602 14.1531L4.9149 7.03187C4.79732 6.81271 4.80418 6.54834 4.93299 6.3355C5.06179 6.12266 5.29363 5.99259 5.54365 5.99289H13.3424C13.5774 5.9893 13.7967 6.1094 13.9191 6.30865C14.0415 6.5079 14.0487 6.75658 13.938 6.96248Z" fill="white"/>
</svg>
