<svg width="45" height="12" viewBox="0 0 45 12" fill="none" xmlns="http://www.w3.org/2000/svg">
<path fill-rule="evenodd" clip-rule="evenodd" d="M3.99217 2.83453C2.85974 2.83453 1.92346 3.23351 1.26658 3.99259V0H0V11.7103H1.26658V10.5642C1.92346 11.3233 2.85974 11.7223 3.99217 11.7223C6.39764 11.7223 7.72251 10.1486 7.72251 7.27887C7.72251 4.40916 6.39764 2.83453 3.99217 2.83453ZM6.42447 7.27841C6.42435 9.43686 5.57504 10.5318 3.89965 10.5318C1.72362 10.5318 1.26658 8.77297 1.26658 7.29183C1.26658 5.18398 2.20194 4.02499 3.89965 4.02499C5.57504 4.02499 6.42435 5.11903 6.42447 7.27841ZM15.2729 5.80606C16.3341 5.28396 16.8929 4.42583 16.8929 3.31312C16.8965 2.88989 16.8033 2.47145 16.6205 2.08977C16.4377 1.70808 16.1701 1.37325 15.8382 1.11085C15.1295 0.538764 14.1183 0.236057 12.9137 0.236057C11.7091 0.236057 10.6988 0.540616 9.99198 1.11085C9.65974 1.37306 9.39182 1.70781 9.2087 2.08951C9.02557 2.4712 8.9321 2.88974 8.93542 3.31312C8.93542 4.43786 9.49053 5.30155 10.548 5.82273C9.27126 6.36149 8.64954 7.2798 8.64954 8.623C8.64954 9.60518 9.01961 10.4383 9.7209 11.0345C10.474 11.6751 11.5491 12 12.9137 12C16.0593 12 17.1788 10.256 17.1788 8.623C17.1788 7.26776 16.5552 6.34483 15.2729 5.80606ZM12.9137 6.47998C14.8668 6.47998 15.8206 7.19371 15.8206 8.6554C15.8206 10.6262 13.6002 10.7845 12.9183 10.7845C10.2261 10.7845 10.016 9.15806 10.016 8.6554C10.0114 7.19371 10.9606 6.47998 12.9137 6.47998ZM10.2982 3.34182C10.2982 2.16061 11.2761 1.45522 12.9137 1.45522C14.5513 1.45522 15.5301 2.16061 15.5301 3.34182C15.5301 4.23421 14.8446 5.27563 12.9137 5.27563C10.9829 5.27563 10.2982 4.23698 10.2982 3.3446V3.34182ZM19.2188 4.15182C19.9932 3.26869 21.1293 2.80583 22.5069 2.80583C25.1548 2.80583 26.8655 4.60449 26.8673 7.38718C26.8673 8.69891 26.4926 9.82735 25.7839 10.6429C25.0068 11.5307 23.879 12 22.5088 12C19.81 12 18.1336 10.2328 18.1336 7.38718C18.1336 6.08007 18.5037 4.96181 19.2188 4.15182ZM22.5069 10.1402C24.4868 10.1402 24.7533 8.75816 24.7533 7.40569C24.7533 5.4617 24.114 4.67114 22.5069 4.67114C20.8999 4.67114 20.2439 5.4617 20.2439 7.40569C20.2439 9.81532 21.3875 10.1402 22.5069 10.1402ZM32.4499 2.67716C31.3878 2.67716 30.5301 3.04744 29.8936 3.77505V2.68456H27.823V11.7269H29.8936V6.43277C29.8943 5.94933 30.0866 5.48591 30.4282 5.14406C30.7699 4.80222 31.2331 4.60985 31.7162 4.60912C32.3796 4.60912 32.919 4.86369 33.2307 5.33025C33.4426 5.60796 33.5509 5.99306 33.5509 6.4698V11.7223H35.6196V6.14487C35.6196 3.84355 34.5547 2.67716 32.4499 2.67716ZM40.8922 2.80583C42.1292 2.80583 43.1626 3.19833 43.8805 3.9389C44.6133 4.69428 45 5.79958 45 7.13631C45 7.29189 44.9553 7.68638 44.9317 7.89379C44.9233 7.96776 44.9177 8.01794 44.9177 8.02499L44.9075 8.10646H38.6949C38.8651 9.55242 39.5608 10.2004 40.9394 10.2004C41.7461 10.2004 42.3086 9.99121 42.6584 9.55982L42.6861 9.52557H44.8621L44.8187 9.64869C44.1063 11.6945 42.0542 12 40.895 12C38.1943 12 36.5827 10.2754 36.5827 7.38718C36.5827 6.08193 36.9528 4.96459 37.654 4.15459C38.4145 3.26869 39.5359 2.80583 40.8922 2.80583ZM40.9079 4.60542C39.6534 4.60542 38.9854 5.13677 38.755 6.32261H42.8998C42.7435 5.15159 42.1106 4.60542 40.9079 4.60542Z" fill="white"/>
</svg>
