<svg width="22" height="20" viewBox="0 0 22 20" fill="none" xmlns="http://www.w3.org/2000/svg">
<path d="M19.2464 3.27503C18.7699 2.79155 18.2042 2.40802 17.5815 2.14635C16.9589 1.88468 16.2915 1.75 15.6175 1.75C14.9435 1.75 14.2761 1.88468 13.6534 2.14635C13.0308 2.40802 12.4651 2.79155 11.9886 3.27503L10.9998 4.27794L10.0109 3.27503C9.04846 2.29889 7.74311 1.75051 6.38202 1.75051C5.02092 1.75051 3.71557 2.29889 2.75313 3.27503C1.79069 4.25116 1.25 5.57508 1.25 6.95554C1.25 8.336 1.79069 9.65992 2.75313 10.6361L3.74198 11.639L10.9998 19L18.2575 11.639L19.2464 10.6361C19.7231 10.1528 20.1012 9.57903 20.3592 8.94752C20.6172 8.316 20.75 7.63912 20.75 6.95554C20.75 6.27196 20.6172 5.59508 20.3592 4.96356C20.1012 4.33205 19.7231 3.75828 19.2464 3.27503V3.27503Z" stroke="#030303" stroke-width="2" stroke-linecap="round" stroke-linejoin="round"/>
</svg>
