<svg width="26" height="26" viewBox="0 0 26 26" fill="none" xmlns="http://www.w3.org/2000/svg">
<path d="M19.0002 1H7.00024C3.68654 1 1.00024 3.68629 1.00024 7V19C1.00024 22.3137 3.68654 25 7.00024 25H19.0002C22.314 25 25.0002 22.3137 25.0002 19V7C25.0002 3.68629 22.314 1 19.0002 1Z" stroke="#101820" stroke-width="2" stroke-linecap="round" stroke-linejoin="round"/>
<path d="M17.7987 12.2441C17.9468 13.2428 17.7762 14.2628 17.3112 15.1589C16.8462 16.0551 16.1105 16.7818 15.2086 17.2357C14.3068 17.6896 13.2848 17.8476 12.288 17.6872C11.2912 17.5268 10.3704 17.0562 9.6565 16.3423C8.9426 15.6284 8.47197 14.7076 8.31158 13.7108C8.15118 12.714 8.30917 11.692 8.76309 10.7902C9.217 9.88834 9.94372 9.15261 10.8399 8.68761C11.736 8.22261 12.756 8.05202 13.7547 8.20012C14.7734 8.35118 15.7165 8.82587 16.4447 9.55409C17.1729 10.2823 17.6476 11.2254 17.7987 12.2441Z" stroke="#101820" stroke-width="2" stroke-linecap="round" stroke-linejoin="round"/>
<path d="M19.6005 6.3999H19.6151" stroke="#101820" stroke-width="1.6" stroke-linecap="round" stroke-linejoin="round"/>
</svg>
